# xmcd
#
# Track frame offsets:
#	150
#	16340
#	31375
#	51120
#	90122
#	101660
#	119735
#	138760
#	160920
#	177730
#	198092
#	218640
#
# Disc length: 3061 seconds
#
# Revision: 2
# Processed by: cddbd v1.5.2PL0 Copyright (c) Steve Scherf et al.
# Submitted via: audiograbber 1.83.01
#
DISCID=9b0bf30c
DTITLE=Various Artist - Country Rock CD1
DYEAR=1900
DGENRE=Country
TTITLE0=Charlie Daniels Band - The Devil Went Down To Georgia  1969
TTITLE1=Poco - Pickin' Up The Pieces  1969
TTITLE2=David Allan Coe With Lacy J. Dalton - Gotta Serve Somebody  1983
TTITLE3=Allman Brothers - Blue Sky  1992
TTITLE4=Byrds - You Ain't Goin' Nowhere  1971
TTITLE5=Chet Atkins and Mark Knopfler - Poor Boy Blues  1990
TTITLE6=Dan Fogelberg - Illinois  1974
TTITLE7=David Allan Coe - Mississippi  1999
TTITLE8=J.D. Souther - You're Only Lonely  1979
TTITLE9=Kris Kristofferson - Sunday Morning Coming Down  1969
TTITLE10=Patty Loveless - When the Fallen Angels Fly  1994
TTITLE11=Rodney Crowell - Above And Beyond (The Call Of Love)  1988
EXTD=
EXTT0=
EXTT1=
EXTT2=
EXTT3=
EXTT4=
EXTT5=
EXTT6=
EXTT7=
EXTT8=
EXTT9=
EXTT10=
EXTT11=
PLAYORDER=
